<?xml version="1.0" encoding="utf-8"?>
<!-- Generator: Adobe Illustrator 24.3.0, SVG Export Plug-In . SVG Version: 6.00 Build 0)  -->
<svg version="1.1" id="Layer_1" xmlns="http://www.w3.org/2000/svg" xmlns:xlink="http://www.w3.org/1999/xlink" x="0px" y="0px"
	 viewBox="0 0 4050 371.06" style="enable-background:new 0 0 4050 371.06;" fill="red" xml:space="preserve">
<style type="text/css">
	.st0{display:none;fill:#181818;stroke:#000000;stroke-width:1.4187;stroke-miterlimit:10;}
	.st1{display:none;}
	.st2{display:inline;}
	.st3{fill:#FFFFFF;}
	.st4{clip-path:url(#SVGID_2_);}
	.st5{clip-path:url(#SVGID_4_);fill:#676C72;}
</style>
<rect x="-10" y="-13.72" class="st0" width="4075.68" height="396.54"/>
<g class="st1">
	<g class="st2">
		<path class="st3" d="M778.92,75.28h66.47c22.57,0,42.26,4.67,59.09,14c16.82,9.34,29.75,22.31,38.78,38.93
			c9.03,16.62,13.54,35.7,13.54,57.24s-4.52,40.62-13.54,57.24c-9.03,16.62-21.96,29.6-38.78,38.93c-16.83,9.34-36.52,14-59.09,14
			h-66.47V75.28z M845.39,270.69c26.05,0,46.72-7.49,62.01-22.46c15.28-14.97,22.93-35.9,22.93-62.78c0-26.88-7.65-47.8-22.93-62.78
			c-15.29-14.97-35.96-22.46-62.01-22.46h-40.62v170.49H845.39z"/>
		<path class="st3" d="M1008.8,289.77c-11.9-7.18-21.19-17.08-27.85-29.7c-6.67-12.62-10-26.82-10-42.62
			c0-15.18,3.13-29.13,9.39-41.85c6.26-12.72,15.13-22.87,26.62-30.47c11.49-7.59,24.82-11.39,40.01-11.39
			c15.39,0,28.72,3.44,40.01,10.31c11.28,6.88,19.95,16.36,26,28.47c6.05,12.11,9.08,25.96,9.08,41.54c0,3.08-0.31,5.75-0.92,8
			H997.11c0.62,11.9,3.49,21.96,8.62,30.16c5.13,8.21,11.64,14.36,19.54,18.46c7.9,4.11,16.16,6.16,24.77,6.16
			c20.1,0,35.59-9.43,46.47-28.31l22.16,10.77c-6.77,12.72-15.95,22.77-27.54,30.16c-11.59,7.39-25.6,11.08-42.01,11.08
			C1034.14,300.54,1020.7,296.95,1008.8,289.77z M1094.35,200.53c-0.41-6.56-2.26-13.13-5.54-19.7c-3.28-6.56-8.46-12.1-15.54-16.62
			c-7.08-4.51-15.95-6.77-26.62-6.77c-12.31,0-22.73,3.95-31.24,11.85c-8.52,7.9-14.11,18.31-16.77,31.24H1094.35z"/>
		<path class="st3" d="M1126.05,138.67h28.01l48.62,126.18h0.62l49.24-126.18h27.39l-64.01,156.95h-26.46L1126.05,138.67z"/>
		<path class="st3" d="M1320.24,289.77c-11.9-7.18-21.19-17.08-27.85-29.7c-6.67-12.62-10-26.82-10-42.62
			c0-15.18,3.12-29.13,9.39-41.85c6.26-12.72,15.13-22.87,26.62-30.47c11.49-7.59,24.82-11.39,40.01-11.39
			c15.39,0,28.72,3.44,40.01,10.31c11.28,6.88,19.95,16.36,26,28.47c6.05,12.11,9.08,25.96,9.08,41.54c0,3.08-0.31,5.75-0.92,8
			h-124.02c0.62,11.9,3.49,21.96,8.62,30.16c5.12,8.21,11.64,14.36,19.54,18.46c7.9,4.11,16.16,6.16,24.77,6.16
			c20.1,0,35.59-9.43,46.47-28.31l22.16,10.77c-6.77,12.72-15.96,22.77-27.54,30.16c-11.59,7.39-25.6,11.08-42.01,11.08
			C1345.57,300.54,1332.13,296.95,1320.24,289.77z M1405.79,200.53c-0.41-6.56-2.26-13.13-5.54-19.7
			c-3.28-6.56-8.46-12.1-15.54-16.62c-7.08-4.51-15.96-6.77-26.62-6.77c-12.31,0-22.72,3.95-31.24,11.85
			c-8.52,7.9-14.11,18.31-16.77,31.24H1405.79z"/>
		<path class="st3" d="M1457.79,75.28h26.16v220.35h-26.16V75.28z"/>
		<path class="st3" d="M1545.81,289.47c-12.31-7.39-21.9-17.44-28.77-30.16c-6.88-12.72-10.31-26.77-10.31-42.16
			c0-15.39,3.43-29.44,10.31-42.16c6.87-12.72,16.46-22.77,28.77-30.16c12.31-7.39,26.16-11.08,41.55-11.08
			c15.39,0,29.24,3.69,41.55,11.08s21.9,17.44,28.77,30.16c6.87,12.72,10.31,26.77,10.31,42.16c0,15.39-3.44,29.44-10.31,42.16
			c-6.88,12.72-16.46,22.77-28.77,30.16c-12.31,7.39-26.16,11.08-41.55,11.08C1571.97,300.54,1558.12,296.85,1545.81,289.47z
			 M1614.29,269.62c8.31-4.82,14.97-11.74,20-20.77c5.02-9.03,7.54-19.59,7.54-31.7c0-12.1-2.51-22.67-7.54-31.7
			c-5.03-9.03-11.69-15.95-20-20.77c-8.31-4.82-17.29-7.23-26.93-7.23c-9.65,0-18.67,2.41-27.08,7.23
			c-8.42,4.82-15.13,11.75-20.16,20.77c-5.03,9.03-7.54,19.59-7.54,31.7c0,12.11,2.51,22.67,7.54,31.7
			c5.03,9.03,11.74,15.96,20.16,20.77c8.41,4.82,17.44,7.23,27.08,7.23C1597,276.85,1605.98,274.44,1614.29,269.62z"/>
		<path class="st3" d="M1689.53,138.67h24.93v23.39h1.23c4.72-8,11.85-14.72,21.39-20.16c9.54-5.43,20.26-8.16,32.16-8.16
			c13.95,0,26.67,3.59,38.16,10.77c11.49,7.18,20.51,17.13,27.08,29.85c6.56,12.72,9.85,26.98,9.85,42.78
			c0,16-3.28,30.31-9.85,42.93c-6.57,12.62-15.59,22.52-27.08,29.7c-11.49,7.18-24.21,10.77-38.16,10.77
			c-11.9,0-22.62-2.72-32.16-8.16c-9.54-5.43-16.67-12.05-21.39-19.85h-1.23l1.23,21.54v68.01h-26.16V138.67z M1791.7,269.46
			c8-4.92,14.41-11.95,19.23-21.08c4.82-9.13,7.23-19.54,7.23-31.24s-2.41-22.11-7.23-31.24c-4.82-9.13-11.23-16.16-19.23-21.08
			c-8-4.92-16.52-7.39-25.54-7.39c-9.03,0-17.54,2.46-25.54,7.39c-8,4.92-14.36,11.9-19.08,20.93c-4.72,9.03-7.08,19.49-7.08,31.39
			c0,11.9,2.36,22.36,7.08,31.39c4.72,9.03,11.08,16,19.08,20.93c8,4.92,16.51,7.39,25.54,7.39
			C1775.18,276.85,1783.7,274.39,1791.7,269.46z"/>
		<path class="st3" d="M1898.18,289.77c-11.9-7.18-21.19-17.08-27.85-29.7c-6.67-12.62-10-26.82-10-42.62
			c0-15.18,3.12-29.13,9.39-41.85c6.26-12.72,15.13-22.87,26.62-30.47c11.49-7.59,24.82-11.39,40.01-11.39
			c15.39,0,28.72,3.44,40.01,10.31c11.28,6.88,19.95,16.36,26,28.47c6.05,12.11,9.08,25.96,9.08,41.54c0,3.08-0.31,5.75-0.92,8
			h-124.02c0.62,11.9,3.49,21.96,8.62,30.16c5.12,8.21,11.64,14.36,19.54,18.46c7.9,4.11,16.16,6.16,24.77,6.16
			c20.1,0,35.59-9.43,46.47-28.31l22.16,10.77c-6.77,12.72-15.96,22.77-27.54,30.16c-11.59,7.39-25.6,11.08-42.01,11.08
			C1923.51,300.54,1910.08,296.95,1898.18,289.77z M1983.73,200.53c-0.41-6.56-2.26-13.13-5.54-19.7
			c-3.28-6.56-8.46-12.1-15.54-16.62c-7.08-4.51-15.96-6.77-26.62-6.77c-12.31,0-22.72,3.95-31.24,11.85
			c-8.52,7.9-14.11,18.31-16.77,31.24H1983.73z"/>
		<path class="st3" d="M2035.74,138.67h24.93v25.24h1.23c3.08-8.62,9.03-15.8,17.85-21.54c8.82-5.74,18.05-8.62,27.7-8.62
			c7.18,0,13.33,1.13,18.46,3.38v28c-6.57-3.28-13.96-4.92-22.16-4.92c-7.59,0-14.57,2.16-20.93,6.48
			c-6.36,4.32-11.44,10.13-15.23,17.43c-3.8,7.3-5.69,15.17-5.69,23.6v87.91h-26.16V138.67z"/>
		<path class="st3" d="M2220.38,284.85c-14.36-10.46-24.21-25.13-29.54-44.01l24.93-10.16c3.49,13.13,9.95,23.9,19.39,32.31
			c9.43,8.42,20.51,12.62,33.24,12.62c12.72,0,23.49-3.43,32.31-10.31c8.82-6.87,13.23-16.26,13.23-28.16
			c0-10.26-3.75-18.72-11.23-25.39c-7.49-6.67-19.75-12.87-36.78-18.62l-13.85-4.92c-15.59-5.54-28.31-12.82-38.16-21.85
			c-9.85-9.03-14.77-21.54-14.77-37.54c0-10.46,2.87-20.16,8.62-29.08c5.74-8.92,13.74-16.05,24-21.39c10.26-5.33,21.74-8,34.47-8
			c12.72,0,23.8,2.36,33.24,7.08c9.43,4.72,16.97,10.46,22.62,17.23c5.64,6.77,9.59,13.44,11.85,20l-24.62,10.46
			c-2.05-7.59-6.72-14.46-14-20.62c-7.29-6.16-16.88-9.23-28.77-9.23c-11.29,0-20.93,3.18-28.93,9.54c-8,6.36-12,14.36-12,24
			c0,8.62,3.38,15.65,10.16,21.08c6.77,5.44,17.03,10.52,30.77,15.23l14.46,4.92c18.67,6.77,33.24,15.23,43.7,25.39
			c10.46,10.16,15.7,23.96,15.7,41.39c0,14.16-3.65,26.06-10.92,35.7c-7.29,9.65-16.46,16.72-27.54,21.23
			c-11.08,4.51-22.46,6.77-34.16,6.77C2250.54,300.54,2234.74,295.31,2220.38,284.85z"/>
		<path class="st3" d="M2402.41,297.41c-5.44-2.09-10-4.91-13.69-8.46c-4.11-3.97-7.18-8.56-9.23-13.79
			c-2.05-5.22-3.08-11.59-3.08-19.11v-93.68h-27.39v-23.7h27.39V94.36h26.16v44.32h38.16v23.7h-38.16v87.44
			c0,8.81,1.64,15.31,4.92,19.5c3.89,4.62,9.54,6.92,16.93,6.92c5.95,0,11.69-1.74,17.23-5.23v25.54c-3.08,1.43-6.21,2.46-9.39,3.08
			c-3.18,0.62-7.23,0.92-12.16,0.92C2413.75,300.54,2407.85,299.5,2402.41,297.41z"/>
		<path class="st3" d="M2479.96,283.93c-9.95-11.08-14.93-26.57-14.93-46.47v-98.79h26.16v94.79c0,14.98,3.38,25.96,10.16,32.93
			c6.77,6.98,15.9,10.46,27.39,10.46c8.82,0,16.67-2.36,23.54-7.08c6.87-4.72,12.2-10.87,16-18.46c3.79-7.59,5.69-15.59,5.69-24
			v-88.63h26.16v156.95h-24.93v-22.77h-1.23c-4.31,7.8-11.18,14.36-20.62,19.7c-9.44,5.33-19.49,8-30.16,8
			C2504.32,300.54,2489.91,295.01,2479.96,283.93z"/>
		<path class="st3" d="M2659.69,289.77c-11.39-7.18-20.36-17.08-26.93-29.7c-6.57-12.62-9.85-26.93-9.85-42.93
			c0-15.8,3.28-30.05,9.85-42.78c6.56-12.72,15.54-22.67,26.93-29.85c11.39-7.18,24.05-10.77,38.01-10.77
			c12.1,0,22.87,2.72,32.31,8.16c9.43,5.44,16.62,12.16,21.54,20.16h1.23l-1.23-21.85V75.28h26.16v220.35h-24.93v-23.08h-1.23
			c-4.92,7.8-12.11,14.42-21.54,19.85c-9.44,5.43-20.21,8.16-32.31,8.16C2683.74,300.54,2671.07,296.95,2659.69,289.77z
			 M2726.47,269.46c7.9-4.92,14.26-11.9,19.08-20.93c4.82-9.03,7.23-19.49,7.23-31.39c0-11.9-2.41-22.36-7.23-31.39
			c-4.82-9.03-11.19-16-19.08-20.93c-7.9-4.92-16.46-7.39-25.7-7.39c-9.03,0-17.54,2.46-25.54,7.39s-14.42,11.95-19.23,21.08
			c-4.82,9.13-7.23,19.54-7.23,31.24s2.41,22.11,7.23,31.24c4.82,9.13,11.23,16.16,19.23,21.08s16.51,7.39,25.54,7.39
			C2710,276.85,2718.57,274.39,2726.47,269.46z"/>
		<path class="st3" d="M2838.33,289.77c-11.9-7.18-21.19-17.08-27.85-29.7c-6.67-12.62-10-26.82-10-42.62
			c0-15.18,3.12-29.13,9.39-41.85c6.26-12.72,15.13-22.87,26.62-30.47c11.49-7.59,24.82-11.39,40.01-11.39
			c15.39,0,28.72,3.44,40.01,10.31c11.28,6.88,19.95,16.36,26,28.47c6.05,12.11,9.08,25.96,9.08,41.54c0,3.08-0.31,5.75-0.92,8
			h-124.02c0.62,11.9,3.49,21.96,8.62,30.16c5.12,8.21,11.64,14.36,19.54,18.46c7.9,4.11,16.16,6.16,24.77,6.16
			c20.1,0,35.59-9.43,46.47-28.31l22.16,10.77c-6.77,12.72-15.96,22.77-27.54,30.16c-11.59,7.39-25.6,11.08-42.01,11.08
			C2863.67,300.54,2850.23,296.95,2838.33,289.77z M2923.89,200.53c-0.41-6.56-2.26-13.13-5.54-19.7
			c-3.28-6.56-8.46-12.1-15.54-16.62c-7.08-4.51-15.96-6.77-26.62-6.77c-12.31,0-22.72,3.95-31.24,11.85
			c-8.52,7.9-14.11,18.31-16.77,31.24H2923.89z"/>
		<path class="st3" d="M2975.89,138.67h24.93v23.08h1.23c4.31-7.79,11.18-14.41,20.62-19.85c9.43-5.43,19.49-8.16,30.16-8.16
			c18.87,0,33.28,5.49,43.24,16.46c9.95,10.98,14.93,25.9,14.93,44.78v100.63h-26.16v-96.63c0-14.57-3.49-25.13-10.46-31.7
			c-6.98-6.56-16.52-9.85-28.62-9.85c-8.42,0-15.96,2.36-22.62,7.08c-6.67,4.72-11.85,10.92-15.54,18.62
			c-3.69,7.69-5.54,15.75-5.54,24.16v88.32h-26.16V138.67z"/>
		<path class="st3" d="M3177.31,297.41c-5.44-2.09-10-4.91-13.69-8.46c-4.11-3.97-7.18-8.56-9.23-13.79
			c-2.05-5.22-3.08-11.59-3.08-19.11v-93.68h-27.39v-23.7h27.39V94.36h26.16v44.32h38.16v23.7h-38.16v87.44
			c0,8.81,1.64,15.31,4.92,19.5c3.89,4.62,9.54,6.92,16.93,6.92c5.95,0,11.69-1.74,17.23-5.23v25.54c-3.08,1.43-6.21,2.46-9.39,3.08
			c-3.18,0.62-7.23,0.92-12.16,0.92C3188.64,300.54,3182.74,299.5,3177.31,297.41z"/>
		<path class="st3" d="M3350.73,285.47c-17.44-10.05-31.14-23.85-41.08-41.39c-9.95-17.54-14.93-37.08-14.93-58.63
			s4.97-41.08,14.93-58.63c9.95-17.54,23.64-31.34,41.08-41.39c17.44-10.05,36.82-15.08,58.16-15.08c16.41,0,31.44,3.13,45.08,9.39
			c13.64,6.26,25.49,15.13,35.54,26.62l-18.77,18.16c-8.42-10.05-17.59-17.44-27.54-22.16c-9.95-4.72-21.39-7.08-34.31-7.08
			c-16,0-30.67,3.75-44.01,11.23c-13.34,7.49-23.96,18.06-31.85,31.7c-7.9,13.65-11.85,29.39-11.85,47.24s3.95,33.6,11.85,47.24
			c7.9,13.65,18.51,24.21,31.85,31.7c13.33,7.49,28,11.23,44.01,11.23c26.67,0,49.34-10.97,68.01-32.93l19.08,18.46
			c-10.26,12.11-22.88,21.7-37.85,28.77c-14.98,7.08-31.39,10.62-49.24,10.62C3387.55,300.54,3368.16,295.52,3350.73,285.47z"/>
		<path class="st3" d="M3519.06,75.28h26.16v220.35h-26.16V75.28z"/>
		<path class="st3" d="M3591.54,283.93c-9.95-11.08-14.93-26.57-14.93-46.47v-98.79h26.16v94.79c0,14.98,3.38,25.96,10.16,32.93
			c6.77,6.98,15.9,10.46,27.39,10.46c8.82,0,16.67-2.36,23.54-7.08c6.87-4.72,12.2-10.87,16-18.46c3.79-7.59,5.69-15.59,5.69-24
			v-88.63h26.16v156.95h-24.93v-22.77h-1.23c-4.31,7.8-11.18,14.36-20.62,19.7c-9.44,5.33-19.49,8-30.16,8
			C3615.9,300.54,3601.49,295.01,3591.54,283.93z"/>
		<path class="st3" d="M3791.88,292.39c-9.54-5.43-16.67-12.05-21.39-19.85h-1.23v23.08h-24.93V75.28h26.16v64.93l-1.23,21.85h1.23
			c4.72-8,11.85-14.72,21.39-20.16c9.54-5.43,20.26-8.16,32.16-8.16c13.95,0,26.67,3.59,38.16,10.77
			c11.49,7.18,20.51,17.13,27.08,29.85c6.56,12.72,9.85,26.98,9.85,42.78c0,16-3.28,30.31-9.85,42.93
			c-6.57,12.62-15.59,22.52-27.08,29.7c-11.49,7.18-24.21,10.77-38.16,10.77C3812.13,300.54,3801.42,297.82,3791.88,292.39z
			 M3846.5,269.46c8-4.92,14.41-11.95,19.23-21.08c4.82-9.13,7.23-19.54,7.23-31.24s-2.41-22.11-7.23-31.24
			c-4.82-9.13-11.23-16.16-19.23-21.08c-8-4.92-16.52-7.39-25.54-7.39c-9.03,0-17.54,2.46-25.54,7.39s-14.36,11.9-19.08,20.93
			c-4.72,9.03-7.08,19.49-7.08,31.39c0,11.9,2.36,22.36,7.08,31.39c4.72,9.03,11.08,16,19.08,20.93s16.51,7.39,25.54,7.39
			C3829.98,276.85,3838.5,274.39,3846.5,269.46z"/>
		<path class="st3" d="M3934.52,288.7c-11.29-7.9-19.29-18-24-30.31l23.39-10.46c3.9,9.44,9.69,16.72,17.39,21.85
			c7.69,5.13,16.16,7.69,25.39,7.69c9.85,0,18.26-2,25.23-6c6.97-4,10.46-9.69,10.46-17.08c0-6.56-2.77-11.85-8.31-15.85
			c-5.54-4-14.26-7.43-26.16-10.31l-19.08-4.92c-12.52-3.08-22.77-8.31-30.77-15.7c-8-7.39-12-16.93-12-28.62
			c0-9.03,2.72-16.97,8.16-23.85c5.43-6.87,12.67-12.16,21.7-15.85c9.03-3.69,18.77-5.54,29.24-5.54c13.74,0,26,2.98,36.78,8.92
			c10.77,5.95,18.41,14.26,22.93,24.93l-22.77,10.46c-6.98-13.95-19.39-20.93-37.24-20.93c-8.62,0-16.16,2-22.62,6
			c-6.46,4-9.69,9.08-9.69,15.23c0,5.75,2.25,10.42,6.77,14c4.51,3.59,11.28,6.52,20.31,8.77l22.77,5.85
			c15.39,3.9,26.98,9.69,34.78,17.39c7.79,7.69,11.69,17.08,11.69,28.16c0,9.65-2.77,18.11-8.31,25.39
			c-5.54,7.29-13.03,12.88-22.47,16.77c-9.44,3.89-19.9,5.85-31.39,5.85C3959.85,300.54,3945.8,296.59,3934.52,288.7z"/>
	</g>
	<g class="st2">
		<path class="st3" d="M252.46,243.17L77.21,141.99c-7.86-4.54-16.44-6.7-24.91-6.7c-17.25,0-34.02,8.95-43.26,24.96
			c-13.78,23.87-5.6,54.39,18.27,68.17L202.55,329.6c7.86,4.54,16.44,6.69,24.9,6.69c17.25,0,34.02-8.95,43.26-24.96
			C284.5,287.47,276.33,256.95,252.46,243.17z"/>
		<path class="st3" d="M601.94,141.99L426.69,40.81c-7.86-4.54-16.44-6.69-24.91-6.69c-17.25,0-34.02,8.95-43.26,24.96
			c-13.78,23.87-5.6,54.39,18.27,68.17l175.25,101.18c7.86,4.54,16.44,6.69,24.9,6.69c17.25,0,34.02-8.95,43.26-24.96
			C633.99,186.29,625.81,155.77,601.94,141.99z"/>
		<g>
			<path class="st3" d="M545.1,240.44l-81.79-47.22l-86.52,49.95c-23.87,13.78-32.05,44.3-18.27,68.17
				c9.24,16.01,26.02,24.96,43.26,24.96c8.47,0,17.04-2.16,24.9-6.69l140.87-81.33C559.7,247.09,552.06,244.46,545.1,240.44z"/>
		</g>
		<g>
			<path class="st3" d="M84.15,129.97l81.79,47.22l86.52-49.95c23.87-13.78,32.05-44.3,18.27-68.17
				c-13.78-23.87-44.3-32.05-68.17-18.27L61.68,122.14C69.56,123.32,77.19,125.95,84.15,129.97z"/>
		</g>
	</g>
</g>
<g>
	<g>
		<defs>
			<rect id="SVGID_1_" y="-6.54" width="4050" height="371.06"/>
		</defs>
		<clipPath id="SVGID_2_">
			<use xlink:href="#SVGID_1_"  style="overflow:visible;"/>
		</clipPath>
		<g class="st4">
			<defs>
				<rect id="SVGID_3_" y="-6.54" width="4050" height="371.06"/>
			</defs>
			<clipPath id="SVGID_4_">
				<use xlink:href="#SVGID_3_"  style="overflow:visible;"/>
			</clipPath>
			<path class="st5" d="M778.95,68.42h66.57c22.6,0,42.32,4.67,59.17,14.02c16.84,9.35,29.79,22.34,38.83,38.98
				c9.04,16.64,13.56,35.75,13.56,57.32c0,21.57-4.52,40.68-13.56,57.32c-9.04,16.64-21.99,29.64-38.83,38.98
				c-16.85,9.35-36.57,14.02-59.17,14.02h-66.57V68.42z M845.52,264.11c26.09,0,46.79-7.5,62.1-22.5
				c15.3-14.99,22.96-35.95,22.96-62.87c0-26.91-7.66-47.87-22.96-62.87c-15.31-15-36.01-22.5-62.1-22.5h-40.68v170.73H845.52z"/>
			<path class="st5" d="M1009.16,283.22c-11.92-7.19-21.22-17.1-27.89-29.74c-6.68-12.64-10.01-26.86-10.01-42.68
				c0-15.2,3.13-29.17,9.4-41.91c6.27-12.74,15.15-22.9,26.66-30.51c11.5-7.6,24.86-11.4,40.06-11.4c15.41,0,28.76,3.44,40.06,10.32
				c11.3,6.89,19.98,16.39,26.04,28.51c6.06,12.12,9.09,25.99,9.09,41.6c0,3.08-0.31,5.75-0.92,8.01H997.45
				c0.62,11.92,3.49,21.99,8.63,30.2c5.13,8.22,11.66,14.38,19.57,18.49c7.91,4.11,16.18,6.16,24.81,6.16
				c20.13,0,35.64-9.45,46.53-28.35l22.19,10.79c-6.78,12.74-15.98,22.8-27.58,30.2c-11.61,7.4-25.63,11.09-42.07,11.09
				C1034.53,294.01,1021.07,290.41,1009.16,283.22 M1094.83,193.85c-0.41-6.57-2.26-13.15-5.55-19.72
				c-3.29-6.57-8.47-12.12-15.56-16.64c-7.09-4.52-15.98-6.78-26.66-6.78c-12.33,0-22.76,3.96-31.28,11.86
				c-8.53,7.91-14.13,18.34-16.8,31.28H1094.83z"/>
			<polygon class="st5" points="1126.57,131.91 1154.61,131.91 1203.3,258.26 1203.92,258.26 1253.23,131.91 1280.66,131.91 
				1216.56,289.08 1190.05,289.08 			"/>
			<path class="st5" d="M1321.02,283.22c-11.92-7.19-21.22-17.1-27.89-29.74c-6.68-12.64-10.02-26.86-10.02-42.68
				c0-15.2,3.13-29.17,9.4-41.91c6.27-12.74,15.15-22.9,26.66-30.51c11.5-7.6,24.86-11.4,40.06-11.4c15.41,0,28.76,3.44,40.06,10.32
				c11.3,6.89,19.98,16.39,26.04,28.51c6.06,12.12,9.09,25.99,9.09,41.6c0,3.08-0.31,5.75-0.92,8.01h-124.19
				c0.62,11.92,3.49,21.99,8.63,30.2c5.13,8.22,11.66,14.38,19.57,18.49c7.91,4.11,16.18,6.16,24.81,6.16
				c20.13,0,35.64-9.45,46.53-28.35l22.19,10.79c-6.78,12.74-15.98,22.8-27.58,30.2c-11.61,7.4-25.63,11.09-42.07,11.09
				C1346.4,294.01,1332.94,290.41,1321.02,283.22 M1406.7,193.85c-0.41-6.57-2.26-13.15-5.55-19.72
				c-3.29-6.57-8.47-12.12-15.56-16.64c-7.09-4.52-15.98-6.78-26.66-6.78c-12.33,0-22.76,3.96-31.28,11.86
				c-8.53,7.91-14.13,18.34-16.8,31.28H1406.7z"/>
			<rect x="1458.77" y="68.42" class="st5" width="26.19" height="220.65"/>
			<path class="st5" d="M1546.92,282.91c-12.33-7.4-21.93-17.46-28.81-30.2c-6.89-12.74-10.32-26.81-10.32-42.22
				c0-15.41,3.44-29.48,10.32-42.22c6.88-12.74,16.49-22.8,28.81-30.2c12.33-7.4,26.2-11.09,41.6-11.09
				c15.41,0,29.28,3.7,41.6,11.09c12.33,7.4,21.93,17.46,28.81,30.2c6.88,12.74,10.32,26.81,10.32,42.22
				c0,15.41-3.44,29.48-10.32,42.22c-6.89,12.74-16.49,22.8-28.81,30.2c-12.33,7.39-26.19,11.09-41.6,11.09
				C1573.11,294.01,1559.24,290.31,1546.92,282.91 M1615.48,263.03c8.32-4.82,14.99-11.76,20.03-20.8
				c5.03-9.04,7.55-19.62,7.55-31.74c0-12.12-2.52-22.7-7.55-31.74c-5.04-9.04-11.71-15.97-20.03-20.8
				c-8.32-4.82-17.31-7.24-26.97-7.24c-9.66,0-18.7,2.42-27.12,7.24c-8.43,4.83-15.15,11.76-20.19,20.8
				c-5.04,9.04-7.55,19.62-7.55,31.74c0,12.12,2.51,22.7,7.55,31.74c5.03,9.04,11.76,15.98,20.19,20.8
				c8.42,4.83,17.46,7.24,27.12,7.24C1598.17,270.28,1607.16,267.86,1615.48,263.03"/>
			<path class="st5" d="M1690.83,131.91h24.96v23.42h1.23c4.72-8.01,11.86-14.74,21.42-20.18c9.55-5.44,20.29-8.17,32.2-8.17
				c13.97,0,26.71,3.6,38.21,10.79c11.5,7.19,20.54,17.16,27.12,29.89c6.57,12.74,9.86,27.02,9.86,42.84
				c0,16.03-3.29,30.35-9.86,42.99c-6.58,12.63-15.61,22.55-27.12,29.74c-11.51,7.19-24.24,10.79-38.21,10.79
				c-11.92,0-22.65-2.73-32.2-8.17c-9.55-5.44-16.7-12.07-21.42-19.88h-1.23l1.23,21.57v68.11h-26.19V131.91z M1793.15,262.88
				c8.01-4.93,14.43-11.97,19.26-21.11c4.82-9.14,7.24-19.57,7.24-31.28c0-11.71-2.42-22.13-7.24-31.28
				c-4.83-9.14-11.25-16.18-19.26-21.11c-8.01-4.93-16.54-7.4-25.58-7.4c-9.04,0-17.57,2.46-25.58,7.4
				c-8.01,4.93-14.38,11.92-19.11,20.96c-4.73,9.04-7.09,19.52-7.09,31.43c0,11.92,2.36,22.4,7.09,31.43
				c4.72,9.04,11.09,16.02,19.11,20.96c8.01,4.93,16.54,7.4,25.58,7.4C1776.61,270.28,1785.13,267.81,1793.15,262.88"/>
			<path class="st5" d="M1899.77,283.22c-11.92-7.19-21.22-17.1-27.89-29.74c-6.68-12.64-10.02-26.86-10.02-42.68
				c0-15.2,3.13-29.17,9.4-41.91c6.27-12.74,15.15-22.9,26.66-30.51c11.5-7.6,24.86-11.4,40.06-11.4c15.41,0,28.76,3.44,40.06,10.32
				c11.3,6.89,19.98,16.39,26.04,28.51c6.06,12.12,9.09,25.99,9.09,41.6c0,3.08-0.31,5.75-0.92,8.01h-124.19
				c0.62,11.92,3.49,21.99,8.63,30.2c5.13,8.22,11.66,14.38,19.57,18.49c7.91,4.11,16.18,6.16,24.81,6.16
				c20.13,0,35.64-9.45,46.53-28.35l22.19,10.79c-6.78,12.74-15.98,22.8-27.58,30.2c-11.61,7.4-25.63,11.09-42.07,11.09
				C1925.14,294.01,1911.69,290.41,1899.77,283.22 M1985.45,193.85c-0.41-6.57-2.26-13.15-5.55-19.72
				c-3.29-6.57-8.47-12.12-15.56-16.64c-7.09-4.52-15.98-6.78-26.66-6.78c-12.33,0-22.76,3.96-31.28,11.86
				c-8.53,7.91-14.13,18.34-16.8,31.28H1985.45z"/>
			<path class="st5" d="M2037.52,131.91h24.96v25.27h1.23c3.08-8.63,9.04-15.82,17.88-21.57c8.83-5.75,18.08-8.63,27.74-8.63
				c7.19,0,13.35,1.13,18.49,3.39v28.04c-6.58-3.28-13.97-4.93-22.19-4.93c-7.6,0-14.59,2.16-20.96,6.49
				c-6.37,4.32-11.46,10.14-15.25,17.45c-3.8,7.31-5.7,15.19-5.7,23.63v88.03h-26.19V131.91z"/>
			<path class="st5" d="M2222.43,278.29c-14.38-10.48-24.25-25.16-29.59-44.07l24.96-10.17c3.49,13.15,9.96,23.94,19.42,32.36
				c9.45,8.43,20.54,12.64,33.28,12.64c12.74,0,23.52-3.44,32.36-10.32c8.83-6.88,13.25-16.28,13.25-28.2
				c0-10.27-3.75-18.75-11.25-25.42c-7.5-6.67-19.78-12.89-36.83-18.64l-13.87-4.93c-15.62-5.55-28.35-12.84-38.21-21.88
				c-9.86-9.04-14.79-21.57-14.79-37.6c0-10.48,2.87-20.19,8.63-29.12c5.75-8.94,13.76-16.07,24.04-21.42
				c10.27-5.34,21.77-8.01,34.52-8.01c12.74,0,23.83,2.36,33.28,7.09c9.45,4.73,17,10.48,22.65,17.26
				c5.65,6.78,9.6,13.46,11.86,20.03l-24.65,10.48c-2.06-7.6-6.73-14.49-14.02-20.65c-7.29-6.16-16.9-9.24-28.81-9.24
				c-11.3,0-20.95,3.19-28.97,9.55c-8.01,6.37-12.02,14.38-12.02,24.04c0,8.63,3.39,15.67,10.17,21.11
				c6.78,5.45,17.05,10.53,30.82,15.25l14.48,4.93c18.69,6.78,33.28,15.26,43.76,25.43s15.72,23.99,15.72,41.45
				c0,14.18-3.65,26.09-10.94,35.75c-7.29,9.66-16.49,16.75-27.58,21.27c-11.09,4.52-22.5,6.78-34.21,6.78
				C2252.63,294.01,2236.81,288.77,2222.43,278.29"/>
			<path class="st5" d="M2404.71,290.87c-5.45-2.09-10.02-4.92-13.71-8.47c-4.11-3.97-7.19-8.58-9.25-13.81
				c-2.06-5.23-3.08-11.61-3.08-19.14v-93.82h-27.43v-23.73h27.43V87.53h26.19v44.38h38.21v23.73h-38.21v87.56
				c0,8.82,1.64,15.33,4.93,19.53c3.9,4.62,9.55,6.93,16.95,6.93c5.96,0,11.71-1.74,17.26-5.24V290c-3.08,1.43-6.22,2.46-9.4,3.08
				c-3.19,0.62-7.24,0.92-12.17,0.92C2416.06,294.01,2410.15,292.96,2404.71,290.87"/>
			<path class="st5" d="M2482.37,277.36c-9.97-11.09-14.95-26.6-14.95-46.53v-98.92h26.19v94.92c0,15,3.39,25.99,10.17,32.98
				c6.78,6.99,15.92,10.48,27.43,10.48c8.83,0,16.69-2.36,23.57-7.09c6.88-4.72,12.22-10.89,16.02-18.49
				c3.8-7.6,5.7-15.61,5.7-24.04v-88.75h26.19v157.17h-24.96v-22.81h-1.23c-4.31,7.81-11.2,14.38-20.65,19.72
				c-9.45,5.34-19.52,8.01-30.2,8.01C2506.76,294.01,2492.33,288.46,2482.37,277.36"/>
			<path class="st5" d="M2662.34,283.22c-11.4-7.19-20.39-17.1-26.97-29.74c-6.58-12.64-9.86-26.97-9.86-42.99
				c0-15.82,3.28-30.1,9.86-42.84c6.57-12.74,15.56-22.7,26.97-29.89c11.4-7.19,24.09-10.79,38.06-10.79
				c12.12,0,22.91,2.73,32.36,8.17c9.45,5.45,16.64,12.17,21.57,20.18h1.23l-1.23-21.88V68.42h26.2v220.65h-24.96v-23.11h-1.23
				c-4.93,7.81-12.12,14.44-21.57,19.88c-9.45,5.44-20.24,8.17-32.36,8.17C2686.43,294.01,2673.75,290.41,2662.34,283.22
				 M2729.22,262.88c7.91-4.93,14.28-11.91,19.11-20.96c4.83-9.04,7.24-19.52,7.24-31.43c0-11.91-2.42-22.39-7.24-31.43
				c-4.83-9.04-11.2-16.03-19.11-20.96c-7.91-4.93-16.49-7.4-25.73-7.4c-9.04,0-17.57,2.46-25.58,7.4
				c-8.01,4.93-14.44,11.97-19.26,21.11c-4.83,9.15-7.24,19.57-7.24,31.28c0,11.71,2.41,22.14,7.24,31.28
				c4.82,9.14,11.25,16.18,19.26,21.11c8.01,4.93,16.54,7.4,25.58,7.4C2712.73,270.28,2721.31,267.81,2729.22,262.88"/>
			<path class="st5" d="M2841.24,283.22c-11.92-7.19-21.22-17.1-27.89-29.74c-6.68-12.64-10.02-26.86-10.02-42.68
				c0-15.2,3.13-29.17,9.4-41.91c6.27-12.74,15.15-22.9,26.66-30.51c11.5-7.6,24.86-11.4,40.06-11.4c15.41,0,28.76,3.44,40.06,10.32
				c11.3,6.89,19.98,16.39,26.04,28.51c6.06,12.12,9.09,25.99,9.09,41.6c0,3.08-0.31,5.75-0.92,8.01h-124.19
				c0.62,11.92,3.49,21.99,8.63,30.2c5.13,8.22,11.66,14.38,19.57,18.49c7.91,4.11,16.18,6.16,24.81,6.16
				c20.13,0,35.64-9.45,46.53-28.35l22.19,10.79c-6.78,12.74-15.98,22.8-27.58,30.2c-11.61,7.4-25.63,11.09-42.07,11.09
				C2866.61,294.01,2853.15,290.41,2841.24,283.22 M2926.91,193.85c-0.41-6.57-2.26-13.15-5.55-19.72
				c-3.29-6.57-8.47-12.12-15.56-16.64c-7.09-4.52-15.98-6.78-26.66-6.78c-12.33,0-22.76,3.96-31.28,11.86
				c-8.53,7.91-14.13,18.34-16.79,31.28H2926.91z"/>
			<path class="st5" d="M2978.99,131.91h24.96v23.11h1.23c4.31-7.8,11.2-14.43,20.65-19.88c9.45-5.44,19.52-8.17,30.2-8.17
				c18.9,0,33.33,5.5,43.3,16.49c9.96,10.99,14.95,25.94,14.95,44.84v100.77h-26.19v-96.77c0-14.59-3.5-25.16-10.48-31.74
				c-6.99-6.57-16.54-9.86-28.66-9.86c-8.43,0-15.98,2.36-22.65,7.09c-6.68,4.73-11.86,10.94-15.56,18.64s-5.55,15.77-5.55,24.19
				v88.45h-26.19V131.91z"/>
			<path class="st5" d="M3180.69,290.87c-5.45-2.09-10.02-4.92-13.71-8.47c-4.11-3.97-7.19-8.58-9.25-13.81
				c-2.06-5.23-3.08-11.61-3.08-19.14v-93.82h-27.43v-23.73h27.43V87.53h26.19v44.38h38.21v23.73h-38.21v87.56
				c0,8.82,1.64,15.33,4.93,19.53c3.9,4.62,9.55,6.93,16.95,6.93c5.96,0,11.71-1.74,17.26-5.24V290c-3.08,1.43-6.22,2.46-9.4,3.08
				c-3.19,0.62-7.24,0.92-12.17,0.92C3192.04,294.01,3186.13,292.96,3180.69,290.87"/>
			<path class="st5" d="M3354.35,278.91c-17.47-10.06-31.18-23.88-41.14-41.45c-9.97-17.57-14.95-37.13-14.95-58.71
				c0-21.57,4.98-41.14,14.95-58.71c9.96-17.57,23.68-31.38,41.14-41.45c17.46-10.06,36.88-15.1,58.24-15.1
				c16.44,0,31.48,3.13,45.15,9.4c13.66,6.27,25.53,15.15,35.59,26.66l-18.8,18.18c-8.43-10.06-17.62-17.46-27.58-22.19
				c-9.97-4.72-21.42-7.09-34.36-7.09c-16.02,0-30.72,3.75-44.07,11.25c-13.36,7.5-23.99,18.08-31.9,31.74
				c-7.91,13.66-11.86,29.43-11.86,47.31s3.95,33.64,11.86,47.3c7.91,13.66,18.54,24.24,31.9,31.74
				c13.35,7.5,28.04,11.25,44.07,11.25c26.71,0,49.41-10.99,68.11-32.98l19.11,18.49c-10.27,12.12-22.91,21.73-37.9,28.82
				c-15,7.09-31.44,10.63-49.31,10.63C3391.22,294.01,3371.81,288.97,3354.35,278.91"/>
			<rect x="3522.92" y="68.42" class="st5" width="26.19" height="220.65"/>
			<path class="st5" d="M3595.49,277.36c-9.97-11.09-14.95-26.6-14.95-46.53v-98.92h26.19v94.92c0,15,3.39,25.99,10.17,32.98
				c6.78,6.99,15.92,10.48,27.43,10.48c8.83,0,16.69-2.36,23.57-7.09c6.88-4.72,12.22-10.89,16.02-18.49
				c3.8-7.6,5.7-15.61,5.7-24.04v-88.75h26.19v157.17h-24.96v-22.81h-1.23c-4.31,7.81-11.2,14.38-20.65,19.72
				c-9.45,5.34-19.52,8.01-30.2,8.01C3619.89,294.01,3605.46,288.46,3595.49,277.36"/>
			<path class="st5" d="M3796.11,285.84c-9.55-5.44-16.69-12.07-21.42-19.88h-1.23v23.11h-24.96V68.42h26.19v65.02l-1.23,21.88h1.23
				c4.72-8.01,11.86-14.74,21.42-20.18c9.55-5.44,20.29-8.17,32.2-8.17c13.97,0,26.71,3.6,38.21,10.79
				c11.5,7.19,20.54,17.16,27.12,29.89c6.57,12.74,9.86,27.02,9.86,42.84c0,16.03-3.29,30.35-9.86,42.99
				c-6.58,12.63-15.62,22.55-27.12,29.74c-11.51,7.19-24.24,10.79-38.21,10.79C3816.4,294.01,3805.66,291.28,3796.11,285.84
				 M3850.81,262.88c8.01-4.93,14.43-11.97,19.26-21.11c4.82-9.14,7.24-19.57,7.24-31.28c0-11.71-2.42-22.13-7.24-31.28
				c-4.83-9.14-11.25-16.18-19.26-21.11c-8.01-4.93-16.54-7.4-25.58-7.4c-9.04,0-17.57,2.46-25.58,7.4
				c-8.01,4.93-14.38,11.92-19.11,20.96c-4.73,9.04-7.09,19.52-7.09,31.43c0,11.92,2.36,22.4,7.09,31.43
				c4.72,9.04,11.09,16.02,19.11,20.96c8.01,4.93,16.53,7.4,25.58,7.4C3834.27,270.28,3842.8,267.81,3850.81,262.88"/>
			<path class="st5" d="M3938.95,282.14c-11.3-7.91-19.31-18.03-24.04-30.35l23.42-10.48c3.9,9.45,9.71,16.75,17.41,21.88
				c7.7,5.14,16.18,7.7,25.43,7.7c9.86,0,18.28-2,25.27-6.01c6.98-4.01,10.48-9.71,10.48-17.1c0-6.57-2.77-11.87-8.32-15.87
				c-5.55-4.01-14.28-7.45-26.19-10.33l-19.11-4.93c-12.53-3.08-22.81-8.32-30.82-15.72c-8.01-7.4-12.02-16.95-12.02-28.66
				c0-9.04,2.72-17,8.17-23.88c5.44-6.88,12.68-12.17,21.73-15.87c9.04-3.7,18.8-5.55,29.28-5.55c13.76,0,26.04,2.98,36.83,8.94
				c10.79,5.96,18.44,14.28,22.96,24.96l-22.8,10.48c-6.99-13.97-19.42-20.96-37.29-20.96c-8.63,0-16.18,2-22.65,6.01
				c-6.47,4.01-9.71,9.09-9.71,15.25c0,5.75,2.26,10.43,6.78,14.02c4.52,3.6,11.3,6.52,20.34,8.78l22.81,5.86
				c15.41,3.9,27.01,9.71,34.82,17.41c7.8,7.71,11.71,17.1,11.71,28.2c0,9.66-2.77,18.13-8.32,25.43
				c-5.55,7.29-13.05,12.89-22.5,16.79c-9.45,3.9-19.93,5.86-31.43,5.86C3964.32,294.01,3950.25,290.05,3938.95,282.14"/>
			<path class="st5" d="M252.46,236.62L77.21,135.44c-7.86-4.54-16.44-6.7-24.91-6.7c-17.25,0-34.02,8.95-43.26,24.96
				c-13.78,23.87-5.6,54.39,18.27,68.17l175.25,101.18c7.86,4.54,16.44,6.69,24.9,6.69c17.25,0,34.02-8.95,43.26-24.96
				C284.5,280.93,276.33,250.4,252.46,236.62"/>
			<path class="st5" d="M601.94,135.45L426.69,34.26c-7.86-4.54-16.44-6.69-24.91-6.69c-17.25,0-34.02,8.95-43.26,24.96
				c-13.78,23.87-5.6,54.39,18.27,68.17l175.25,101.18c7.86,4.54,16.44,6.69,24.9,6.69c17.25,0,34.02-8.95,43.27-24.96
				C633.99,179.75,625.81,149.23,601.94,135.45"/>
			<path class="st5" d="M545.1,233.9l-81.79-47.22l-86.52,49.95c-23.87,13.78-32.05,44.3-18.27,68.17
				c9.24,16.01,26.02,24.96,43.26,24.96c8.47,0,17.05-2.16,24.9-6.69l140.87-81.33C559.7,240.55,552.06,237.92,545.1,233.9"/>
			<path class="st5" d="M84.15,123.42l81.79,47.22l86.52-49.95c23.87-13.78,32.05-44.3,18.27-68.17
				c-13.78-23.87-44.3-32.05-68.17-18.27L61.68,115.6C69.56,116.78,77.19,119.41,84.15,123.42"/>
		</g>
	</g>
</g>
</svg>
